<?xml version="1.0" encoding="UTF-8" standalone="no"?>
<svg
   xmlns:dc="http://purl.org/dc/elements/1.1/"
   xmlns:cc="http://creativecommons.org/ns#"
   xmlns:rdf="http://www.w3.org/1999/02/22-rdf-syntax-ns#"
   xmlns:svg="http://www.w3.org/2000/svg"
   xmlns="http://www.w3.org/2000/svg"
   id="svg2448"
   version="1.1"
   viewBox="0 0 247.14233 185.38239"
   height="185.38239mm"
   width="247.14233mm">
  <defs
     id="defs2442" />
  <metadata
     id="metadata2445">
    <rdf:RDF>
      <cc:Work
         rdf:about="">
        <dc:format>image/svg+xml</dc:format>
        <dc:type
           rdf:resource="http://purl.org/dc/dcmitype/StillImage" />
        <dc:title></dc:title>
      </cc:Work>
    </rdf:RDF>
  </metadata>
  <g
     transform="translate(-32.381739,-98.702192)"
     id="layer1">
    <g
       id="text2351"
       style="font-style:normal;font-variant:normal;font-weight:normal;font-stretch:normal;font-size:330.81759644px;line-height:1.25;font-family:'Arial Black';-inkscape-font-specification:'Arial Black, ';letter-spacing:0px;word-spacing:0px;display:inline;opacity:1;fill:#e81000;fill-opacity:1;stroke:none;stroke-width:8.2704401"
       aria-label="4  4" />
    <g
       transform="matrix(0.36863964,0,0,0.36863964,92.415235,116.74166)"
       id="g3139">
      <ellipse
         ry="12.84926"
         rx="97.975601"
         cy="209.49762"
         cx="168.36206"
         id="ellipse2293"
         style="display:inline;fill:#cccccc;fill-opacity:1;stroke:#1a1a1a;stroke-width:0;stroke-linecap:round;stroke-linejoin:round;stroke-miterlimit:4;stroke-dasharray:none;stroke-opacity:1" />
      <path
         d="M -42.994672,157.02898 H -162.85144 V 102.91575 L -42.994672,-39.555499 H 14.349199 V 105.98486 h 29.721893 v 51.04412 H 14.349199 v 44.25978 h -57.343871 z m 0,-51.04412 V 31.518594 l -63.320558,74.466266 z"
         style="font-style:normal;font-variant:normal;font-weight:normal;font-stretch:normal;font-size:330.81759644px;line-height:1.25;font-family:'Arial Black';-inkscape-font-specification:'Arial Black, ';text-align:center;letter-spacing:0px;word-spacing:0px;text-anchor:middle;display:inline;opacity:1;fill:#e81000;fill-opacity:1;stroke:none;stroke-width:8.2704401"
         id="path3089" />
      <path
         d="M 398.95696,157.02898 H 279.10019 V 102.91575 L 398.95696,-39.555499 h 57.34387 V 105.98486 h 29.72189 v 51.04412 h -29.72189 v 44.25978 h -57.34387 z m 0,-51.04412 V 31.518594 L 335.6364,105.98486 Z"
         style="font-style:normal;font-variant:normal;font-weight:normal;font-stretch:normal;font-size:330.81759644px;line-height:1.25;font-family:'Arial Black';-inkscape-font-specification:'Arial Black, ';text-align:center;letter-spacing:0px;word-spacing:0px;text-anchor:middle;display:inline;opacity:1;fill:#e81000;fill-opacity:1;stroke:none;stroke-width:8.2704401"
         id="path3091" />
      <g
         aria-label="ERROR"
         style="font-style:normal;font-variant:normal;font-weight:normal;font-stretch:normal;font-size:175.2298584px;line-height:1.25;font-family:'Arial Black';-inkscape-font-specification:'Arial Black, ';letter-spacing:0px;word-spacing:0px;display:inline;opacity:1;fill:#e81000;fill-opacity:1;stroke:none;stroke-width:4.38074684"
         id="text2399">
        <path
           d="m -158.87243,229.23015 h 103.871602 v 26.78073 h -65.026702 v 19.93582 h 60.320822 v 25.58288 h -60.320822 v 24.72726 h 66.909054 v 28.4064 H -158.87243 Z"
           style="font-style:normal;font-variant:normal;font-weight:normal;font-stretch:normal;font-family:'Arial Black';-inkscape-font-specification:'Arial Black, ';text-align:center;text-anchor:middle;fill:#e81000;fill-opacity:1;stroke-width:4.38074684"
           id="path3078" />
        <path
           d="M -31.642553,354.66324 V 229.23015 h 64.598898 q 17.967906,0 27.465227,3.08021 9.497322,3.08021 15.3155,11.46523 5.818179,8.29946 5.818179,20.27807 0,10.4385 -4.449195,18.05347 -4.449196,7.5294 -12.235288,12.23528 -4.962565,2.99465 -13.604272,4.96257 6.930478,2.31016 10.096252,4.62032 2.139036,1.5401 6.160425,6.58823 4.10695,5.04812 5.475933,7.78609 l 18.737958,36.36362 H 47.9296 L 27.223728,316.33171 q -3.935827,-7.44385 -7.016039,-9.66845 -4.192512,-2.90909 -9.497322,-2.90909 H 7.287909 v 50.90907 z M 7.287909,280.05365 h 16.342238 q 2.652405,0 10.267374,-1.71123 3.850266,-0.77005 6.245986,-3.93583 2.481283,-3.16577 2.481283,-7.27272 0,-6.07486 -3.850266,-9.3262 -3.850265,-3.25133 -14.459886,-3.25133 H 7.287909 Z"
           style="font-style:normal;font-variant:normal;font-weight:normal;font-stretch:normal;font-family:'Arial Black';-inkscape-font-specification:'Arial Black, ';text-align:center;text-anchor:middle;fill:#e81000;fill-opacity:1;stroke-width:4.38074684"
           id="path3080" />
        <path
           d="M 104.57128,354.66324 V 229.23015 h 64.5989 q 17.96791,0 27.46523,3.08021 9.49732,3.08021 15.3155,11.46523 5.81818,8.29946 5.81818,20.27807 0,10.4385 -4.4492,18.05347 -4.44919,7.5294 -12.23529,12.23528 -4.96256,2.99465 -13.60427,4.96257 6.93048,2.31016 10.09625,4.62032 2.13904,1.5401 6.16043,6.58823 4.10695,5.04812 5.47593,7.78609 l 18.73796,36.36362 h -43.80746 l -20.70588,-38.33153 q -3.93582,-7.44385 -7.01603,-9.66845 -4.19252,-2.90909 -9.49733,-2.90909 h -3.42245 v 50.90907 z m 38.93047,-74.60959 h 16.34223 q 2.65241,0 10.26738,-1.71123 3.85026,-0.77005 6.24598,-3.93583 2.48129,-3.16577 2.48129,-7.27272 0,-6.07486 -3.85027,-9.3262 -3.85026,-3.25133 -14.45988,-3.25133 h -17.02673 z"
           style="font-style:normal;font-variant:normal;font-weight:normal;font-stretch:normal;font-family:'Arial Black';-inkscape-font-specification:'Arial Black, ';text-align:center;text-anchor:middle;fill:#e81000;fill-opacity:1;stroke-width:4.38074684"
           id="path3082" />
        <path
           d="m 232.48566,292.03225 q 0,-30.71656 17.11229,-47.82885 17.11229,-17.11229 47.65773,-17.11229 31.31549,0 48.25666,16.85561 16.94117,16.77004 16.94117,47.0588 0,21.98929 -7.44385,36.10693 -7.35828,14.03208 -21.39036,21.90373 -13.94652,7.78609 -34.82351,7.78609 -21.21924,0 -35.16576,-6.75935 -13.86096,-6.75935 -22.50266,-21.39036 -8.64171,-14.63101 -8.64171,-36.62031 z m 38.75934,0.17113 q 0,18.99464 7.01604,27.2941 7.1016,8.29946 19.25133,8.29946 12.49197,0 19.33688,-8.12834 6.84492,-8.12833 6.84492,-29.17645 0,-17.71122 -7.18716,-25.83956 -7.1016,-8.2139 -19.33689,-8.2139 -11.72192,0 -18.82352,8.29946 -7.1016,8.29946 -7.1016,27.46523 z"
           style="font-style:normal;font-variant:normal;font-weight:normal;font-stretch:normal;font-family:'Arial Black';-inkscape-font-specification:'Arial Black, ';text-align:center;text-anchor:middle;fill:#e81000;fill-opacity:1;stroke-width:4.38074684"
           id="path3084" />
        <path
           d="M 384.18609,354.66324 V 229.23015 h 64.5989 q 17.9679,0 27.46523,3.08021 9.49732,3.08021 15.3155,11.46523 5.81818,8.29946 5.81818,20.27807 0,10.4385 -4.4492,18.05347 -4.4492,7.5294 -12.23529,12.23528 -4.96256,2.99465 -13.60427,4.96257 6.93048,2.31016 10.09625,4.62032 2.13904,1.5401 6.16043,6.58823 4.10695,5.04812 5.47593,7.78609 l 18.73796,36.36362 h -43.80747 l -20.70587,-38.33153 q -3.93583,-7.44385 -7.01604,-9.66845 -4.19251,-2.90909 -9.49732,-2.90909 h -3.42246 v 50.90907 z m 38.93046,-74.60959 h 16.34224 q 2.65241,0 10.26738,-1.71123 3.85026,-0.77005 6.24598,-3.93583 2.48128,-3.16577 2.48128,-7.27272 0,-6.07486 -3.85026,-9.3262 -3.85027,-3.25133 -14.45989,-3.25133 h -17.02673 z"
           style="font-style:normal;font-variant:normal;font-weight:normal;font-stretch:normal;font-family:'Arial Black';-inkscape-font-specification:'Arial Black, ';text-align:center;text-anchor:middle;fill:#e81000;fill-opacity:1;stroke-width:4.38074684"
           id="path3086" />
      </g>
      <g
         aria-label="nothing here"
         style="font-style:normal;font-variant:normal;font-weight:normal;font-stretch:normal;font-size:82.90223694px;line-height:1.25;font-family:'Arial Black';-inkscape-font-specification:'Arial Black, ';letter-spacing:0px;word-spacing:0px;display:inline;opacity:1;fill:#1a1a1a;fill-opacity:1;stroke:none;stroke-width:2.07255602"
         id="text2403">
        <path
           d="m -56.209512,436.50043 v -42.98935 h 6.557696 v 6.11242 q 4.736114,-7.08393 13.682107,-7.08393 3.886043,0 7.124411,1.41679 3.278849,1.37631 4.898033,3.64316 1.619184,2.26686 2.266858,5.38379 0.404796,2.02398 0.404796,7.08393 v 26.43319 H -28.56194 V 410.3506 q 0,-4.45276 -0.850072,-6.63866 -0.850072,-2.22637 -3.035971,-3.52172 -2.145419,-1.33583 -5.059951,-1.33583 -4.655155,0 -8.055442,2.95501 -3.359807,2.95501 -3.359807,11.21285 v 23.47818 z"
           style="font-style:normal;font-variant:normal;font-weight:normal;font-stretch:normal;font-family:Arial;-inkscape-font-specification:Arial;text-align:center;text-anchor:middle;fill:#1a1a1a;fill-opacity:1;stroke-width:2.07255602"
           id="path3055" />
        <path
           d="m -12.774895,415.00576 q 0,-11.94149 6.6386559,-17.68959 5.54570625,-4.7766 13.520189,-4.7766 8.8650341,0 14.4917001,5.82907 5.626665,5.78858 5.626665,16.02992 0,8.29832 -2.509736,13.07491 -2.469256,4.73612 -7.245849,7.36729 -4.736115,2.63118 -10.3627801,2.63118 -9.0269526,0 -14.6131384,-5.78859 -5.5457065,-5.78858 -5.5457065,-16.67759 z m 7.4887276,0 q 0,8.25784 3.6026851,12.38676 3.6026851,4.08844 9.0674322,4.08844 5.4242671,0 9.0269521,-4.12892 3.602686,-4.12892 3.602686,-12.58916 0,-7.97448 -3.643165,-12.06293 -3.602685,-4.12892 -8.9864731,-4.12892 -5.4647471,0 -9.0674322,4.08845 -3.6026851,4.08844 -3.6026851,12.34628 z"
           style="font-style:normal;font-variant:normal;font-weight:normal;font-stretch:normal;font-family:Arial;-inkscape-font-specification:Arial;text-align:center;text-anchor:middle;fill:#1a1a1a;fill-opacity:1;stroke-width:2.07255602"
           id="path3057" />
        <path
           d="m 51.992476,429.98321 1.05247,6.43626 q -3.07645,0.64767 -5.505227,0.64767 -3.967001,0 -6.1529,-1.25487 -2.185899,-1.25486 -3.07645,-3.27884 -0.890552,-2.06446 -0.890552,-8.62216 v -24.73304 h -5.343308 v -5.66715 h 5.343308 v -10.64613 l 7.24585,-4.3718 v 15.01793 h 7.326809 v 5.66715 h -7.326809 v 25.13784 q 0,3.11693 0.364317,4.00748 0.404796,0.89055 1.254867,1.41678 0.890552,0.52624 2.509736,0.52624 1.214388,0 3.197889,-0.28336 z"
           style="font-style:normal;font-variant:normal;font-weight:normal;font-stretch:normal;font-family:Arial;-inkscape-font-specification:Arial;text-align:center;text-anchor:middle;fill:#1a1a1a;fill-opacity:1;stroke-width:2.07255602"
           id="path3059" />
        <path
           d="m 59.076407,436.50043 v -59.34311 h 7.286329 v 21.29228 q 5.100431,-5.91003 12.872515,-5.91003 4.776594,0 8.29832,1.90254 3.521726,1.86207 5.019471,5.18139 1.538226,3.31933 1.538226,9.63415 v 27.24278 h -7.28633 v -27.24278 q 0,-5.46475 -2.388297,-7.934 -2.347817,-2.50974 -6.679135,-2.50974 -3.238369,0 -6.112421,1.70015 -2.833572,1.65966 -4.047961,4.53371 -1.214388,2.87405 -1.214388,7.93401 v 23.51865 z"
           style="font-style:normal;font-variant:normal;font-weight:normal;font-stretch:normal;font-family:Arial;-inkscape-font-specification:Arial;text-align:center;text-anchor:middle;fill:#1a1a1a;fill-opacity:1;stroke-width:2.07255602"
           id="path3061" />
        <path
           d="m 105.26365,385.5366 v -8.37928 h 7.28632 v 8.37928 z m 0,50.96383 v -42.98935 h 7.28632 v 42.98935 z"
           style="font-style:normal;font-variant:normal;font-weight:normal;font-stretch:normal;font-family:Arial;-inkscape-font-specification:Arial;text-align:center;text-anchor:middle;fill:#1a1a1a;fill-opacity:1;stroke-width:2.07255602"
           id="path3063" />
        <path
           d="m 123.68186,436.50043 v -42.98935 h 6.5577 v 6.11242 q 4.73611,-7.08393 13.6821,-7.08393 3.88605,0 7.12442,1.41679 3.27884,1.37631 4.89803,3.64316 1.61918,2.26686 2.26686,5.38379 0.40479,2.02398 0.40479,7.08393 v 26.43319 h -7.28633 V 410.3506 q 0,-4.45276 -0.85007,-6.63866 -0.85007,-2.22637 -3.03597,-3.52172 -2.14542,-1.33583 -5.05995,-1.33583 -4.65516,0 -8.05544,2.95501 -3.35981,2.95501 -3.35981,11.21285 v 23.47818 z"
           style="font-style:normal;font-variant:normal;font-weight:normal;font-stretch:normal;font-family:Arial;-inkscape-font-specification:Arial;text-align:center;text-anchor:middle;fill:#1a1a1a;fill-opacity:1;stroke-width:2.07255602"
           id="path3065" />
        <path
           d="m 168.49278,440.06263 7.08393,1.05247 q 0.44527,3.27885 2.46925,4.7766 2.71214,2.02398 7.40777,2.02398 5.05995,0 7.81257,-2.02398 2.75261,-2.02398 3.72412,-5.66715 0.56672,-2.22638 0.52624,-9.35079 -4.7766,5.62667 -11.90101,5.62667 -8.86503,0 -13.72259,-6.39578 -4.85755,-6.39578 -4.85755,-15.34177 0,-6.1529 2.22638,-11.33429 2.22638,-5.22187 6.43626,-8.05544 4.25036,-2.83358 9.95798,-2.83358 7.61017,0 12.54868,6.1529 v -5.18139 h 6.71961 v 37.16028 q 0,10.03895 -2.06446,14.20835 -2.02398,4.20988 -6.47673,6.63865 -4.41228,2.42878 -10.88902,2.42878 -7.69112,0 -12.42724,-3.48125 -4.73611,-3.44076 -4.57419,-10.40326 z m 6.03146,-25.82599 q 0,8.46024 3.35981,12.34628 3.3598,3.88605 8.41975,3.88605 5.01948,0 8.41976,-3.84557 3.40029,-3.88604 3.40029,-12.14388 0,-7.89352 -3.52173,-11.901 -3.48124,-4.00749 -8.41975,-4.00749 -4.85756,0 -8.25784,3.96701 -3.40029,3.92652 -3.40029,11.6986 z"
           style="font-style:normal;font-variant:normal;font-weight:normal;font-stretch:normal;font-family:Arial;-inkscape-font-specification:Arial;text-align:center;text-anchor:middle;fill:#1a1a1a;fill-opacity:1;stroke-width:2.07255602"
           id="path3067" />
        <path
           d="m 238.96779,436.50043 v -59.34311 h 7.28633 v 21.29228 q 5.10043,-5.91003 12.87252,-5.91003 4.77659,0 8.29832,1.90254 3.52172,1.86207 5.01947,5.18139 1.53823,3.31933 1.53823,9.63415 v 27.24278 h -7.28633 v -27.24278 q 0,-5.46475 -2.3883,-7.934 -2.34782,-2.50974 -6.67914,-2.50974 -3.23836,0 -6.11242,1.70015 -2.83357,1.65966 -4.04796,4.53371 -1.21439,2.87405 -1.21439,7.93401 v 23.51865 z"
           style="font-style:normal;font-variant:normal;font-weight:normal;font-stretch:normal;font-family:Arial;-inkscape-font-specification:Arial;text-align:center;text-anchor:middle;fill:#1a1a1a;fill-opacity:1;stroke-width:2.07255602"
           id="path3069" />
        <path
           d="m 314.5432,422.6564 7.52921,0.93103 q -1.78111,6.59818 -6.59818,10.24134 -4.81707,3.64317 -12.3058,3.64317 -9.43175,0 -14.97746,-5.78859 -5.50522,-5.82906 -5.50522,-16.31328 0,-10.84853 5.58618,-16.83951 5.58619,-5.99099 14.4917,-5.99099 8.62216,0 14.08691,5.86955 5.46474,5.86954 5.46474,16.51568 0,0.64767 -0.0405,1.94302 h -32.05985 q 0.4048,7.08393 4.00748,10.84853 3.60269,3.76461 8.98648,3.76461 4.00748,0 6.84105,-2.10494 2.83357,-2.10494 4.49324,-6.71962 z m -23.92345,-11.77956 h 24.00441 q -0.48576,-5.42427 -2.75262,-8.13641 -3.48124,-4.20987 -9.02695,-4.20987 -5.01947,0 -8.46024,3.3598 -3.40028,3.35981 -3.7646,8.98648 z"
           style="font-style:normal;font-variant:normal;font-weight:normal;font-stretch:normal;font-family:Arial;-inkscape-font-specification:Arial;text-align:center;text-anchor:middle;fill:#1a1a1a;fill-opacity:1;stroke-width:2.07255602"
           id="path3071" />
        <path
           d="m 331.18032,436.50043 v -42.98935 h 6.5577 v 6.51722 q 2.50974,-4.5742 4.61467,-6.03146 2.14542,-1.45727 4.69564,-1.45727 3.68364,0 7.48873,2.34782 l -2.50974,6.76009 q -2.67165,-1.5787 -5.34331,-1.5787 -2.38829,0 -4.29084,1.45727 -1.90254,1.41678 -2.71213,3.967 -1.21439,3.88604 -1.21439,8.50072 v 22.50666 z"
           style="font-style:normal;font-variant:normal;font-weight:normal;font-stretch:normal;font-family:Arial;-inkscape-font-specification:Arial;text-align:center;text-anchor:middle;fill:#1a1a1a;fill-opacity:1;stroke-width:2.07255602"
           id="path3073" />
        <path
           d="m 388.37801,422.6564 7.5292,0.93103 q -1.7811,6.59818 -6.59817,10.24134 -4.81708,3.64317 -12.3058,3.64317 -9.43175,0 -14.97746,-5.78859 -5.50522,-5.82906 -5.50522,-16.31328 0,-10.84853 5.58618,-16.83951 5.58619,-5.99099 14.4917,-5.99099 8.62216,0 14.0869,5.86955 5.46475,5.86954 5.46475,16.51568 0,0.64767 -0.0405,1.94302 h -32.05985 q 0.4048,7.08393 4.00748,10.84853 3.60269,3.76461 8.98648,3.76461 4.00748,0 6.84105,-2.10494 2.83357,-2.10494 4.49324,-6.71962 z m -23.92345,-11.77956 h 24.00441 q -0.48576,-5.42427 -2.75262,-8.13641 -3.48124,-4.20987 -9.02695,-4.20987 -5.01947,0 -8.46024,3.3598 -3.40029,3.35981 -3.7646,8.98648 z"
           style="font-style:normal;font-variant:normal;font-weight:normal;font-stretch:normal;font-family:Arial;-inkscape-font-specification:Arial;text-align:center;text-anchor:middle;fill:#1a1a1a;fill-opacity:1;stroke-width:2.07255602"
           id="path3075" />
      </g>
      <path
         id="path2295"
         d="m 168.36177,-46.681673 c -17.26796,0 -33.57039,7.2158 -47.77031,19.304596 a 27.951927,15.740749 35.141394 0 0 -26.236033,-0.7601 27.951927,15.740749 35.141394 0 0 5.908203,23.3060096 C 81.410477,21.845523 69.583647,58.057533 69.583647,94.057933 c 0,69.966597 44.667683,112.631797 98.778123,112.631797 54.11044,0 97.17259,-42.6652 97.17259,-112.631797 0,-36.3903 -11.65265,-72.9937 -30.44632,-99.7493004 a 15.740749,27.951927 47.044044 0 0 3.79492,-22.4147096 15.740749,27.951927 47.044044 0 0 -23.31918,0.5714 c -13.93518,-11.993995 -30.0091,-19.146996 -47.20201,-19.146996 z"
         style="display:inline;opacity:1;fill:#ffffff;fill-opacity:1;stroke:#1a1a1a;stroke-width:4.50712872;stroke-linecap:round;stroke-linejoin:round;stroke-miterlimit:4;stroke-dasharray:none;stroke-opacity:1" />
      <g
         style="display:inline;opacity:1"
         transform="matrix(1.5023762,0,0,1.5023762,-14.739923,-153.58688)"
         id="g2301">
        <ellipse
           style="fill:#ffffff;fill-opacity:1;stroke:#1a1a1a;stroke-width:0;stroke-linecap:round;stroke-linejoin:round;stroke-miterlimit:4;stroke-dasharray:none;stroke-opacity:1"
           id="ellipse2297"
           cx="-23.101553"
           cy="128.39378"
           rx="10.513207"
           ry="18.584841"
           transform="matrix(0.65450001,-0.75606199,0.79897898,0.60135895,0,0)" />
        <path
           style="fill:#999999;fill-opacity:1;stroke:#1a1a1a;stroke-width:0;stroke-linecap:round;stroke-linejoin:round;stroke-miterlimit:4;stroke-dasharray:none;stroke-opacity:1"
           d="m 78.342584,96.76781 c -1.491948,-1.977531 -2.732677,-3.747782 -3.723337,-6.716298 -0.903714,-2.70798 -0.03626,-5.641387 3.86033,-5.638204 4.475163,0.0037 7.166511,0.46686 9.337612,1.99468"
           id="path2299" />
      </g>
      <g
         style="display:inline;opacity:1"
         transform="matrix(-0.30986426,1.4700743,-1.4700743,-0.30986426,360.97822,-211.3241)"
         id="g2307">
        <ellipse
           transform="matrix(0.65450001,-0.75606199,0.79897898,0.60135895,0,0)"
           ry="18.584841"
           rx="10.513207"
           cy="157.38646"
           cx="38.490463"
           id="ellipse2303"
           style="fill:#ffffff;fill-opacity:1;stroke:#1a1a1a;stroke-width:0;stroke-linecap:round;stroke-linejoin:round;stroke-miterlimit:4;stroke-dasharray:none;stroke-opacity:1" />
        <path
           id="path2305"
           d="m 141.8191,67.635431 c -1.49195,-1.977531 -2.73268,-3.747782 -3.72334,-6.716298 -0.90371,-2.70798 -0.0363,-5.641387 3.86033,-5.638204 4.47516,0.0037 7.16651,0.46686 9.33761,1.99468"
           style="fill:#999999;fill-opacity:1;stroke:#1a1a1a;stroke-width:0;stroke-linecap:round;stroke-linejoin:round;stroke-miterlimit:4;stroke-dasharray:none;stroke-opacity:1" />
      </g>
      <path
         id="path2309"
         d="m 265.53452,94.057633 c 0,69.966597 -43.06208,112.631797 -97.17252,112.631797 -54.11041,0 -98.778663,-42.6652 -98.778663,-112.631797 0,-69.9665 44.668253,-140.739506 98.778663,-140.739506 54.11042,0 97.17252,70.773006 97.17252,140.739506 z"
         style="display:inline;opacity:1;fill:#ffffff;stroke-width:0.49041232" />
      <path
         style="display:inline;opacity:1;fill:#f1f1f3;fill-opacity:1;stroke-width:0.30443621"
         d="m 233.00985,128.58663 c 0,40.3611 -28.76688,64.973 -64.91444,64.973 -36.14753,0 -65.98738,-24.6119 -65.98738,-64.973 0,-40.361107 29.83985,-81.187307 65.98738,-81.187307 36.14753,0 64.91444,40.8262 64.91444,81.187307 z"
         id="path2311" />
      <path
         id="path2313"
         d="m 224.14535,163.11903 c -5.26587,9.1207 -20.33455,30.4406 -56.48211,30.4406 -36.14753,0 -52.38168,-22.9787 -57.15352,-31.2437 -20.180523,-34.9537 23.27743,-9.0578 59.42497,-9.0578 36.14753,0 74.3912,-25.0928 54.21066,9.8609 z"
         style="display:inline;opacity:1;fill:#e5e5e7;fill-opacity:1;stroke-width:0.30443621" />
      <g
         transform="rotate(-91.269371,-589.0166,1004.6166)"
         id="g2317"
         style="display:inline;stroke:#e81000;stroke-width:5;stroke-miterlimit:4;stroke-dasharray:none">
        <path
           style="fill:none;stroke:#e81000;stroke-width:5;stroke-linecap:round;stroke-linejoin:miter;stroke-miterlimit:4;stroke-dasharray:none;stroke-opacity:1"
           d="m 405.92783,1754.6276 11.22532,11.2254"
           id="path2315" />
      </g>
      <g
         id="g2339"
         transform="rotate(-1.269371,-79732.296,12937.806)"
         style="display:inline;stroke:#e81000;stroke-width:5;stroke-miterlimit:4;stroke-dasharray:none">
        <path
           id="path2337"
           d="m 405.92783,1754.6276 11.22532,11.2254"
           style="fill:none;stroke:#e81000;stroke-width:5;stroke-linecap:round;stroke-linejoin:miter;stroke-miterlimit:4;stroke-dasharray:none;stroke-opacity:1" />
      </g>
      <g
         id="g2343"
         transform="rotate(-91.269371,-564.91823,981.04626)"
         style="display:inline;stroke:#e81000;stroke-width:5;stroke-miterlimit:4;stroke-dasharray:none">
        <path
           id="path2341"
           d="m 405.92783,1754.6276 11.22532,11.2254"
           style="fill:none;stroke:#e81000;stroke-width:5;stroke-linecap:round;stroke-linejoin:miter;stroke-miterlimit:4;stroke-dasharray:none;stroke-opacity:1" />
      </g>
      <g
         transform="rotate(-1.269371,-79708.197,10762.434)"
         id="g2347"
         style="display:inline;stroke:#e81000;stroke-width:5;stroke-miterlimit:4;stroke-dasharray:none">
        <path
           style="fill:none;stroke:#e81000;stroke-width:5;stroke-linecap:round;stroke-linejoin:miter;stroke-miterlimit:4;stroke-dasharray:none;stroke-opacity:1"
           d="m 405.92783,1754.6276 11.22532,11.2254"
           id="path2345" />
      </g>
      <path
         id="path2323"
         d="m 180.20745,14.201523 c 0,6.18171 -6.14235,12.4979 -11.7952,12.59831 -6.95677,0.1235 -13.301,-6.0151 -13.301,-12.19681 0,-6.1816904 6.14238,-10.0887004 13.10023,-10.0887004 6.95786,0 11.99597,3.50551 11.99597,9.6872004 z"
         style="display:inline;opacity:1;fill:#1a1a1a;fill-opacity:1;stroke-width:0.36032131" />
      <path
         id="path2325"
         d="m 168.25374,26.007433 v 8.16299"
         style="display:inline;opacity:1;fill:#000000;fill-opacity:1;stroke:#1a1a1a;stroke-width:2.35121894;stroke-linecap:butt;stroke-linejoin:miter;stroke-miterlimit:4;stroke-dasharray:none;stroke-opacity:1" />
      <g
         id="g2329"
         transform="matrix(1.2361736,-0.46937004,0.74500489,0.77881753,-1651.615,-1143.2988)"
         style="display:inline;opacity:1">
        <path
           id="path2327"
           d="m 405.92783,1754.6276 11.22532,11.2254"
           style="fill:none;stroke:#1a1a1a;stroke-width:2.35100007;stroke-linecap:round;stroke-linejoin:miter;stroke-miterlimit:4;stroke-dasharray:none;stroke-opacity:1" />
      </g>
    </g>
  </g>
</svg>
