<?xml version="1.0" encoding="UTF-8" standalone="no"?>
<svg
   xmlns:dc="http://purl.org/dc/elements/1.1/"
   xmlns:cc="http://creativecommons.org/ns#"
   xmlns:rdf="http://www.w3.org/1999/02/22-rdf-syntax-ns#"
   xmlns:svg="http://www.w3.org/2000/svg"
   xmlns="http://www.w3.org/2000/svg"
   id="svg1860"
   version="1.1"
   viewBox="0 0 199.54425 38.795094"
   height="38.795094mm"
   width="199.54425mm">
  <defs
     id="defs1854" />
  <metadata
     id="metadata1857">
    <rdf:RDF>
      <cc:Work
         rdf:about="">
        <dc:format>image/svg+xml</dc:format>
        <dc:type
           rdf:resource="http://purl.org/dc/dcmitype/StillImage" />
        <dc:title></dc:title>
      </cc:Work>
    </rdf:RDF>
  </metadata>
  <g
     transform="translate(-7.9458928,-105.62328)"
     id="layer1">
    <g
       id="text4984"
       style="font-style:normal;font-variant:normal;font-weight:normal;font-stretch:normal;font-size:55.4217453px;line-height:1.25;font-family:Estilo;-inkscape-font-specification:'Estilo, Normal';font-variant-ligatures:normal;font-variant-caps:normal;font-variant-numeric:normal;font-feature-settings:normal;text-align:start;letter-spacing:0px;word-spacing:0px;writing-mode:lr-tb;text-anchor:start;display:inline;fill:#000000;fill-opacity:1;stroke:none;stroke-width:1.38555813"
       aria-label="P    L'AIR">
      <path
         id="path2425"
         style="font-style:normal;font-variant:normal;font-weight:normal;font-stretch:normal;font-size:55.4217453px;font-family:Estilo;-inkscape-font-specification:'Estilo, Normal';font-variant-ligatures:normal;font-variant-caps:normal;font-variant-numeric:normal;font-feature-settings:normal;text-align:start;writing-mode:lr-tb;text-anchor:start;stroke-width:1.38555813"
         d="m 10.71698,126.94092 v -16.73737 h 7.703623 c 4.600004,0 8.368683,3.76868 8.368683,8.36868 0,4.60001 -3.768679,8.36869 -8.368683,8.36869 z m 7.980731,2.66024 c 6.096392,0 11.028928,-4.93253 11.028928,-11.02893 0,-6.09639 -4.932536,-11.02892 -11.028928,-11.02892 H 9.3314364 c -0.7759044,0 -1.3855436,0.60964 -1.3855436,1.38554 v 34.08437 c 0,0.77591 0.6096392,1.38555 1.3855436,1.38555 0.7759046,0 1.3855436,-0.55422 1.3855436,-1.33012 v -13.46749 z" />
      <path
         id="path2427"
         style="font-style:normal;font-variant:normal;font-weight:normal;font-stretch:normal;font-size:55.4217453px;font-family:Estilo;-inkscape-font-specification:'Estilo, Normal';font-variant-ligatures:normal;font-variant-caps:normal;font-variant-numeric:normal;font-feature-settings:normal;text-align:start;writing-mode:lr-tb;text-anchor:start;stroke-width:1.38555813"
         d="m 90.277496,108.59632 c 0,-0.7759 -0.609639,-1.33012 -1.385543,-1.33012 -0.775905,0 -1.385544,0.60964 -1.385544,1.38554 v 34.08437 c 0,0.77591 0.609639,1.38555 1.385544,1.38555 h 16.072307 c 0.7759,0 1.38554,-0.55422 1.38554,-1.33012 0,-0.77591 -0.60964,-1.33013 -1.38554,-1.33013 H 90.277496 Z" />
      <path
         id="path2429"
         style="font-style:normal;font-variant:normal;font-weight:normal;font-stretch:normal;font-size:55.4217453px;font-family:Estilo;-inkscape-font-specification:'Estilo, Normal';font-variant-ligatures:normal;font-variant-caps:normal;font-variant-numeric:normal;font-feature-settings:normal;text-align:start;writing-mode:lr-tb;text-anchor:start;stroke-width:1.38555813"
         d="m 112.40289,108.37463 c 0,-0.7759 -0.60964,-1.38554 -1.38554,-1.38554 -0.7759,0 -1.38554,0.60964 -1.38554,1.38554 v 9.03375 c 0,0.7759 0.60964,1.38554 1.38554,1.38554 0.7759,0 1.38554,-0.60964 1.38554,-1.38554 z" />
      <path
         id="path2431"
         style="font-style:normal;font-variant:normal;font-weight:normal;font-stretch:normal;font-size:55.4217453px;font-family:Estilo;-inkscape-font-specification:'Estilo, Normal';font-variant-ligatures:normal;font-variant-caps:normal;font-variant-numeric:normal;font-feature-settings:normal;text-align:start;writing-mode:lr-tb;text-anchor:start;stroke-width:1.38555813"
         d="m 116.58117,144.28792 c -0.72048,-0.38795 -0.99759,-1.16385 -0.66506,-1.88434 l 16.40484,-34.19521 c 0.49879,-1.05302 1.60723,-1.21928 2.16144,-1.21928 0.55422,0 1.66266,0.16626 2.16145,1.21928 l 16.40484,34.19521 c 0.33253,0.72049 0.0554,1.49639 -0.66506,1.88434 -0.72049,0.33253 -1.49639,0 -1.82892,-0.66506 l -5.43133,-11.25061 h -21.28195 l -5.43133,11.25061 c -0.33253,0.66506 -1.10844,0.99759 -1.82892,0.66506 z m 17.90122,-33.97353 -9.36627,19.39761 h 18.73255 z" />
      <path
         id="path2433"
         style="font-style:normal;font-variant:normal;font-weight:normal;font-stretch:normal;font-size:55.4217453px;font-family:Estilo;-inkscape-font-specification:'Estilo, Normal';font-variant-ligatures:normal;font-variant-caps:normal;font-variant-numeric:normal;font-feature-settings:normal;text-align:start;writing-mode:lr-tb;text-anchor:start;stroke-width:1.38555813"
         d="m 162.04433,108.65174 c 0,-0.7759 -0.60964,-1.38554 -1.38555,-1.38554 -0.7759,0 -1.38554,0.60964 -1.38554,1.38554 v 34.36148 c 0,0.77591 0.60964,1.38555 1.38554,1.38555 0.77591,0 1.38555,-0.60964 1.38555,-1.38555 z" />
      <path
         id="path2435"
         style="font-style:normal;font-variant:normal;font-weight:normal;font-stretch:normal;font-size:55.4217453px;font-family:Estilo;-inkscape-font-specification:'Estilo, Normal';font-variant-ligatures:normal;font-variant-caps:normal;font-variant-numeric:normal;font-feature-settings:normal;text-align:start;writing-mode:lr-tb;text-anchor:start;stroke-width:1.38555813"
         d="m 194.90941,118.57223 c 0,-6.09639 -4.93254,-11.02892 -11.02893,-11.02892 h -9.36627 c -0.77591,0 -1.38555,0.60964 -1.38555,1.38554 v 34.08437 c 0,0.77591 0.60964,1.38555 1.38555,1.38555 0.7759,0 1.38554,-0.55422 1.38554,-1.33012 v -13.46749 h 7.42651 l 4.76627,5.37591 c 4.60001,5.15422 9.53254,9.4217 18.01207,9.4217 0.77591,0 1.38554,-0.60964 1.38554,-1.38555 0,-0.7759 -0.60963,-1.38554 -1.38554,-1.38554 -4.98796,0 -9.75423,-1.82892 -15.7952,-8.59037 l -3.43614,-3.8241 c 4.65542,-1.33012 8.03615,-5.54218 8.03615,-10.64098 z m -19.00966,8.36869 v -16.73737 h 7.70362 c 4.60001,0 8.36869,3.76868 8.36869,8.36868 0,4.60001 -3.76868,8.36869 -8.36869,8.36869 z" />
    </g>
    <g
       transform="matrix(0.16919287,0,0,0.16919287,1.1745373,248.04029)"
       id="g5086"
       style="display:inline">
      <path
         style="fill:none;fill-opacity:1;stroke:#000000;stroke-width:15;stroke-linecap:round;stroke-linejoin:round;stroke-miterlimit:4;stroke-dasharray:none;stroke-opacity:1"
         d="m 234.38158,-834.2282 a 45.946448,25.874121 47.044044 0 0 -10.43452,3.38584 45.946448,25.874121 47.044044 0 0 9.51313,50.2729 45.946448,25.874121 47.044044 0 0 5.24052,5.456 102.72248,102.72248 0 0 0 -14.39294,52.21283 102.72248,102.72248 0 0 0 102.72248,102.72241 102.72248,102.72248 0 0 0 102.72291,-102.72241 102.72248,102.72248 0 0 0 -14.17071,-51.81595 25.874121,45.946448 47.044044 0 0 1.06661,-0.87954 25.874121,45.946448 47.044044 0 0 18.86707,-50.86563 25.874121,45.946448 47.044044 0 0 -50.27292,9.51363 25.874121,45.946448 47.044044 0 0 -5.93659,5.75676 102.72248,102.72248 0 0 0 -52.27637,-14.43168 102.72248,102.72248 0 0 0 -51.79634,14.15935 45.946448,25.874121 47.044044 0 0 -0.42167,-0.5116 45.946448,25.874121 47.044044 0 0 -40.43066,-22.25291 z"
         id="ellipse4894-2" />
      <path
         style="display:inline;opacity:1;fill:#000000;fill-opacity:1;stroke-width:0.54373688"
         d="m 347.19655,-727.73875 c 0,9.32836 -9.26905,18.85976 -17.79938,19.01125 -10.49797,0.18635 -20.07163,-9.07696 -20.07163,-18.40531 0,-9.32836 9.26905,-15.22416 19.76867,-15.22416 10.49963,0 18.10234,5.28986 18.10234,14.61822 z"
         id="path4817-4" />
      <path
         id="path4805-7"
         d="m 300.9924,-769.05872 a 11.944576,11.944576 0 0 1 -8.8531,11.53758 11.944576,11.944576 0 0 1 -13.43579,-5.56529 11.944576,11.944576 0 0 1 1.89822,-14.41838 11.944576,11.944576 0 0 1 14.41838,-1.89821 l -5.97229,10.3443 z"
         style="display:inline;fill:#000000;fill-opacity:1;stroke-width:0.94596213" />
      <path
         id="path5054"
         d="m 376.58764,-769.05872 a 11.944576,11.944576 0 0 1 -8.85309,11.53758 11.944576,11.944576 0 0 1 -13.43579,-5.56529 11.944576,11.944576 0 0 1 1.89822,-14.41838 11.944576,11.944576 0 0 1 14.41837,-1.89821 l -5.97228,10.3443 z"
         style="display:inline;fill:#000000;fill-opacity:1;stroke-width:0.94596213" />
      <path
         style="fill:none;stroke:#000000;stroke-width:8.96387672;stroke-linecap:round;stroke-linejoin:miter;stroke-miterlimit:4;stroke-dasharray:none;stroke-opacity:1"
         d="m 329.27606,-713.74072 v 22.76392"
         id="path5056" />
    </g>
  </g>
</svg>
