<?xml version="1.0" encoding="UTF-8" standalone="no"?>
<svg
   xmlns:dc="http://purl.org/dc/elements/1.1/"
   xmlns:cc="http://creativecommons.org/ns#"
   xmlns:rdf="http://www.w3.org/1999/02/22-rdf-syntax-ns#"
   xmlns:svg="http://www.w3.org/2000/svg"
   xmlns="http://www.w3.org/2000/svg"
   id="svg1860"
   version="1.1"
   viewBox="0 0 1179.3893 229.2951"
   height="229.2951mm"
   width="1179.3893mm">
  <defs
     id="defs1854" />
  <metadata
     id="metadata1857">
    <rdf:RDF>
      <cc:Work
         rdf:about="">
        <dc:format>image/svg+xml</dc:format>
        <dc:type
           rdf:resource="http://purl.org/dc/dcmitype/StillImage" />
        <dc:title></dc:title>
      </cc:Work>
    </rdf:RDF>
  </metadata>
  <g
     transform="translate(498.98039,-9.6173304)"
     id="layer1">
    <g
       id="text4984"
       style="font-style:normal;font-variant:normal;font-weight:normal;font-stretch:normal;font-size:327.56549072px;line-height:1.25;font-family:Estilo;-inkscape-font-specification:'Estilo, Normal';font-variant-ligatures:normal;font-variant-caps:normal;font-variant-numeric:normal;font-feature-settings:normal;text-align:start;letter-spacing:0px;word-spacing:0px;writing-mode:lr-tb;text-anchor:start;display:inline;fill:#000000;fill-opacity:1;stroke:none;stroke-width:8.18922329"
       aria-label="P    L'AIR" />
    <g
       id="g2466">
      <path
         d="M -482.60211,135.6134 V 36.688626 h 45.5316 c 27.18793,0 49.46239,22.274454 49.46239,49.462389 0,27.187935 -22.27446,49.462385 -49.46239,49.462385 z m 47.16943,15.72315 c 36.0322,0 65.18553,-29.15333 65.18553,-65.185535 0,-36.032204 -29.15333,-65.185532 -65.18553,-65.185532 h -55.35857 c -4.58592,0 -8.18914,3.60322 -8.18914,8.189137 V 230.6074 c 0,4.58591 3.60322,8.18913 8.18914,8.18913 4.58591,0 8.18914,-3.27565 8.18914,-7.86157 v -79.59841 z"
         style="font-style:normal;font-variant:normal;font-weight:normal;font-stretch:normal;font-size:327.56549072px;line-height:1.25;font-family:Estilo;-inkscape-font-specification:'Estilo, Normal';font-variant-ligatures:normal;font-variant-caps:normal;font-variant-numeric:normal;font-feature-settings:normal;text-align:start;letter-spacing:0px;word-spacing:0px;writing-mode:lr-tb;text-anchor:start;display:inline;fill:#ffffff;fill-opacity:1;stroke:none;stroke-width:8.18922329"
         id="path2435" />
      <path
         d="m -12.366489,27.189227 c 0,-4.585917 -3.60322,-7.861572 -8.189137,-7.861572 -4.585917,0 -8.189137,3.603221 -8.189137,8.189138 V 228.96957 c 0,4.58592 3.60322,8.18914 8.189137,8.18914 h 94.993992 c 4.585917,0 8.189138,-3.27566 8.189138,-7.86158 0,-4.58591 -3.603221,-7.86157 -8.189138,-7.86157 h -86.804855 z"
         style="font-style:normal;font-variant:normal;font-weight:normal;font-stretch:normal;font-size:327.56549072px;line-height:1.25;font-family:Estilo;-inkscape-font-specification:'Estilo, Normal';font-variant-ligatures:normal;font-variant-caps:normal;font-variant-numeric:normal;font-feature-settings:normal;text-align:start;letter-spacing:0px;word-spacing:0px;writing-mode:lr-tb;text-anchor:start;display:inline;fill:#ffffff;fill-opacity:1;stroke:none;stroke-width:8.18922329"
         id="path2437" />
      <path
         d="m 118.40377,25.878965 c 0,-4.585917 -3.60322,-8.189137 -8.18914,-8.189137 -4.58592,0 -8.18914,3.60322 -8.18914,8.189137 V 79.27214 c 0,4.585917 3.60322,8.189137 8.18914,8.189137 4.58592,0 8.18914,-3.60322 8.18914,-8.189137 z"
         style="font-style:normal;font-variant:normal;font-weight:normal;font-stretch:normal;font-size:327.56549072px;line-height:1.25;font-family:Estilo;-inkscape-font-specification:'Estilo, Normal';font-variant-ligatures:normal;font-variant-caps:normal;font-variant-numeric:normal;font-feature-settings:normal;text-align:start;letter-spacing:0px;word-spacing:0px;writing-mode:lr-tb;text-anchor:start;display:inline;fill:#ffffff;fill-opacity:1;stroke:none;stroke-width:8.18922329"
         id="path2439" />
      <path
         d="m 143.09917,238.1414 c -4.25835,-2.29296 -5.89618,-6.87887 -3.93078,-11.13722 L 236.12777,24.896269 c 2.94809,-6.223745 9.4994,-7.206441 12.77505,-7.206441 3.27566,0 9.82697,0.982696 12.77506,7.206441 l 96.95938,202.107911 c 1.9654,4.25835 0.32757,8.84426 -3.93078,11.13722 -4.25835,1.9654 -8.84427,0 -10.80966,-3.93078 L 311.7954,167.71482 H 186.01025 l -32.10142,66.4958 c -1.96539,3.93078 -6.55131,5.89618 -10.80966,3.93078 z M 248.90282,37.343757 193.54426,151.99168 h 110.71713 z"
         style="font-style:normal;font-variant:normal;font-weight:normal;font-stretch:normal;font-size:327.56549072px;line-height:1.25;font-family:Estilo;-inkscape-font-specification:'Estilo, Normal';font-variant-ligatures:normal;font-variant-caps:normal;font-variant-numeric:normal;font-feature-settings:normal;text-align:start;letter-spacing:0px;word-spacing:0px;writing-mode:lr-tb;text-anchor:start;display:inline;fill:#ffffff;fill-opacity:1;stroke:none;stroke-width:8.18922329"
         id="path2441" />
      <path
         d="m 411.80523,27.516793 c 0,-4.585917 -3.60322,-8.189138 -8.18913,-8.189138 -4.58592,0 -8.18914,3.603221 -8.18914,8.189138 V 230.6074 c 0,4.58591 3.60322,8.18913 8.18914,8.18913 4.58591,0 8.18913,-3.60322 8.18913,-8.18913 z"
         style="font-style:normal;font-variant:normal;font-weight:normal;font-stretch:normal;font-size:327.56549072px;line-height:1.25;font-family:Estilo;-inkscape-font-specification:'Estilo, Normal';font-variant-ligatures:normal;font-variant-caps:normal;font-variant-numeric:normal;font-feature-settings:normal;text-align:start;letter-spacing:0px;word-spacing:0px;writing-mode:lr-tb;text-anchor:start;display:inline;fill:#ffffff;fill-opacity:1;stroke:none;stroke-width:8.18922329"
         id="path2443" />
      <path
         d="m 606.05155,86.151015 c 0,-36.032204 -29.15332,-65.185532 -65.18553,-65.185532 h -55.35857 c -4.58591,0 -8.18913,3.60322 -8.18913,8.189137 V 230.6074 c 0,4.58591 3.60322,8.18913 8.18913,8.18913 4.58592,0 8.18914,-3.27565 8.18914,-7.86157 v -79.59841 h 43.89378 L 565.761,183.1104 c 27.18793,30.46359 56.34126,55.68613 106.45878,55.68613 4.58592,0 8.18914,-3.60322 8.18914,-8.18913 0,-4.58592 -3.60322,-8.18914 -8.18914,-8.18914 -29.48089,0 -57.65152,-10.80966 -93.35616,-50.77265 l -20.30906,-22.60202 c 27.5155,-7.86157 47.49699,-32.75655 47.49699,-62.892575 z M 493.69659,135.6134 V 36.688626 h 45.5316 c 27.18794,0 49.46239,22.274454 49.46239,49.462389 0,27.187935 -22.27445,49.462385 -49.46239,49.462385 z"
         style="font-style:normal;font-variant:normal;font-weight:normal;font-stretch:normal;font-size:327.56549072px;line-height:1.25;font-family:Estilo;-inkscape-font-specification:'Estilo, Normal';font-variant-ligatures:normal;font-variant-caps:normal;font-variant-numeric:normal;font-feature-settings:normal;text-align:start;letter-spacing:0px;word-spacing:0px;writing-mode:lr-tb;text-anchor:start;display:inline;fill:#ffffff;fill-opacity:1;stroke:none;stroke-width:8.18922329"
         id="path2445" />
      <g
         style="display:inline"
         id="g5086"
         transform="translate(-539.0019,851.36091)">
        <path
           id="ellipse4894-2"
           d="m 234.38158,-834.2282 a 45.946448,25.874121 47.044044 0 0 -10.43452,3.38584 45.946448,25.874121 47.044044 0 0 9.51313,50.2729 45.946448,25.874121 47.044044 0 0 5.24052,5.456 102.72248,102.72248 0 0 0 -14.39294,52.21283 102.72248,102.72248 0 0 0 102.72248,102.72241 102.72248,102.72248 0 0 0 102.72291,-102.72241 102.72248,102.72248 0 0 0 -14.17071,-51.81595 25.874121,45.946448 47.044044 0 0 1.06661,-0.87954 25.874121,45.946448 47.044044 0 0 18.86707,-50.86563 25.874121,45.946448 47.044044 0 0 -50.27292,9.51363 25.874121,45.946448 47.044044 0 0 -5.93659,5.75676 102.72248,102.72248 0 0 0 -52.27637,-14.43168 102.72248,102.72248 0 0 0 -51.79634,14.15935 45.946448,25.874121 47.044044 0 0 -0.42167,-0.5116 45.946448,25.874121 47.044044 0 0 -40.43066,-22.25291 z"
           style="fill:none;fill-opacity:1;stroke:#ffffff;stroke-width:15;stroke-linecap:round;stroke-linejoin:round;stroke-miterlimit:4;stroke-dasharray:none;stroke-opacity:1" />
        <path
           id="path4817-4"
           d="m 347.19655,-727.73875 c 0,9.32836 -9.26905,18.85976 -17.79938,19.01125 -10.49797,0.18635 -20.07163,-9.07696 -20.07163,-18.40531 0,-9.32836 9.26905,-15.22416 19.76867,-15.22416 10.49963,0 18.10234,5.28986 18.10234,14.61822 z"
           style="display:inline;opacity:1;fill:#ffffff;fill-opacity:1;stroke-width:0.54373688" />
        <path
           style="display:inline;fill:#ffffff;fill-opacity:1;stroke-width:0.94596213"
           id="path4805-7"
           d="m 300.9924,-769.05872 a 11.944576,11.944576 0 0 1 -8.8531,11.53758 11.944576,11.944576 0 0 1 -13.43579,-5.56529 11.944576,11.944576 0 0 1 1.89822,-14.41838 11.944576,11.944576 0 0 1 14.41838,-1.89821 l -5.97229,10.3443 z" />
        <path
           d="m 376.58764,-769.05872 a 11.944576,11.944576 0 0 1 -8.85309,11.53758 11.944576,11.944576 0 0 1 -13.43579,-5.56529 11.944576,11.944576 0 0 1 1.89822,-14.41838 11.944576,11.944576 0 0 1 14.41837,-1.89821 l -5.97228,10.3443 z"
           id="path5054"
           style="display:inline;fill:#ffffff;fill-opacity:1;stroke-width:0.94596213" />
        <path
           id="path5056"
           d="m 329.27606,-713.74072 v 22.76392"
           style="fill:none;stroke:#ffffff;stroke-width:8.96387672;stroke-linecap:round;stroke-linejoin:miter;stroke-miterlimit:4;stroke-dasharray:none;stroke-opacity:1" />
      </g>
    </g>
  </g>
</svg>
